<svg xmlns="http://www.w3.org/2000/svg" xmlns:xlink="http://www.w3.org/1999/xlink" width="90" zoomAndPan="magnify" viewBox="0 0 67.5 74.999997" height="100" preserveAspectRatio="xMidYMid meet" version="1.0"><defs><clipPath id="b10aa6634a"><path d="M 20 61 L 37 61 L 37 73.726562 L 20 73.726562 Z M 20 61 " clip-rule="nonzero"/></clipPath><clipPath id="75cabb964c"><path d="M 12 15 L 66.5625 15 L 66.5625 73.726562 L 12 73.726562 Z M 12 15 " clip-rule="nonzero"/></clipPath><clipPath id="f1592842fd"><path d="M 25 1.511719 L 51 1.511719 L 51 22 L 25 22 Z M 25 1.511719 " clip-rule="nonzero"/></clipPath><clipPath id="6bf24e6e9e"><path d="M 0.304688 16 L 16 16 L 16 71 L 0.304688 71 Z M 0.304688 16 " clip-rule="nonzero"/></clipPath></defs><path fill="#00a451" d="M 24.851562 54.714844 L 16.898438 49.820312 L 12.820312 53.898438 L 9.617188 69.949219 L 24.851562 54.714844 " fill-opacity="1" fill-rule="nonzero"/><g clip-path="url(#b10aa6634a)"><path fill="#00a451" d="M 31.808594 61.675781 L 20.046875 73.4375 L 32.890625 73.4375 L 36.703125 69.625 L 31.808594 61.675781 " fill-opacity="1" fill-rule="nonzero"/></g><g clip-path="url(#75cabb964c)"><path fill="#00ff7d" d="M 49.167969 22.945312 C 47.960938 22.945312 46.984375 21.964844 46.984375 20.757812 C 46.984375 19.550781 47.960938 18.574219 49.167969 18.574219 C 50.375 18.574219 51.355469 19.550781 51.355469 20.757812 C 51.355469 21.964844 50.375 22.945312 49.167969 22.945312 Z M 26.578125 22.945312 C 25.371094 22.945312 24.390625 21.964844 24.390625 20.757812 C 24.390625 19.550781 25.371094 18.574219 26.578125 18.574219 C 27.785156 18.574219 28.765625 19.550781 28.765625 20.757812 C 28.765625 21.964844 27.785156 22.945312 26.578125 22.945312 Z M 66.527344 71.945312 L 57.609375 16.199219 C 57.492188 15.613281 56.980469 15.195312 56.382812 15.195312 L 19.363281 15.195312 C 18.765625 15.195312 18.253906 15.613281 18.136719 16.199219 L 12.820312 53.898438 L 16.898438 49.820312 L 43.953125 42.570312 L 36.703125 69.625 L 32.890625 73.4375 L 65.304688 73.4375 C 66.09375 73.4375 66.683594 72.71875 66.527344 71.945312 " fill-opacity="1" fill-rule="nonzero"/></g><g clip-path="url(#f1592842fd)"><path fill="#00a451" d="M 49.167969 21.710938 C 48.644531 21.710938 48.214844 21.285156 48.214844 20.757812 C 48.214844 15.53125 47.125 11.089844 45.0625 7.910156 C 43.199219 5.039062 40.644531 3.460938 37.875 3.460938 C 35.097656 3.460938 32.546875 5.039062 30.683594 7.910156 C 28.621094 11.089844 27.53125 15.53125 27.53125 20.757812 C 27.53125 21.285156 27.101562 21.710938 26.578125 21.710938 C 26.050781 21.710938 25.625 21.285156 25.625 20.757812 C 25.625 15.164062 26.824219 10.363281 29.089844 6.875 C 31.3125 3.445312 34.433594 1.558594 37.875 1.558594 C 41.3125 1.558594 44.433594 3.445312 46.65625 6.875 C 48.921875 10.363281 50.121094 15.164062 50.121094 20.757812 C 50.121094 21.285156 49.691406 21.710938 49.167969 21.710938 " fill-opacity="1" fill-rule="nonzero"/></g><g clip-path="url(#6bf24e6e9e)"><path fill="#00a451" d="M 15.929688 16.199219 L 0.296875 69.027344 L 4.890625 67.554688 L 7.070312 70.285156 L 15.929688 16.199219 " fill-opacity="1" fill-rule="nonzero"/></g></svg>