<svg xmlns="http://www.w3.org/2000/svg" xmlns:xlink="http://www.w3.org/1999/xlink" width="150" zoomAndPan="magnify" viewBox="0 0 112.5 30.000001" height="40" preserveAspectRatio="xMidYMid meet" version="1.0"><defs><g/><clipPath id="3cdaebea8b"><path d="M 7 20 L 13 20 L 13 24.183594 L 7 24.183594 Z M 7 20 " clip-rule="nonzero"/></clipPath><clipPath id="c9a71df68c"><path d="M 5 6 L 21.894531 6 L 21.894531 24.183594 L 5 24.183594 Z M 5 6 " clip-rule="nonzero"/></clipPath><clipPath id="769a5f5cce"><path d="M 9 2.410156 L 17 2.410156 L 17 9 L 9 9 Z M 9 2.410156 " clip-rule="nonzero"/></clipPath><clipPath id="88b9504050"><path d="M 1.574219 6 L 7 6 L 7 24 L 1.574219 24 Z M 1.574219 6 " clip-rule="nonzero"/></clipPath></defs><g fill="#ffffff" fill-opacity="1"><g transform="translate(23.762515, 21.557126)"><g><path d="M 0.984375 -13.5 L 5.90625 -13.5 C 7.28125 -13.5 8.390625 -13.144531 9.234375 -12.4375 C 10.085938 -11.726562 10.515625 -10.695312 10.515625 -9.34375 C 10.515625 -7.988281 10.082031 -6.925781 9.21875 -6.15625 C 8.363281 -5.382812 7.257812 -5 5.90625 -5 L 4.0625 -5 L 4.0625 0 L 0.984375 0 Z M 4.0625 -7.453125 L 4.921875 -7.453125 C 5.609375 -7.453125 6.171875 -7.59375 6.609375 -7.875 C 7.054688 -8.15625 7.28125 -8.613281 7.28125 -9.25 C 7.28125 -9.882812 7.054688 -10.34375 6.609375 -10.625 C 6.171875 -10.90625 5.609375 -11.046875 4.921875 -11.046875 L 4.0625 -11.046875 Z M 4.0625 -7.453125 "/></g></g></g><g fill="#ffffff" fill-opacity="1"><g transform="translate(34.654233, 21.557126)"><g><path d="M 1.25 -13.0625 C 1.59375 -13.40625 2 -13.578125 2.46875 -13.578125 C 2.9375 -13.578125 3.335938 -13.40625 3.671875 -13.0625 C 4.015625 -12.726562 4.1875 -12.328125 4.1875 -11.859375 C 4.1875 -11.390625 4.015625 -10.984375 3.671875 -10.640625 C 3.335938 -10.304688 2.9375 -10.140625 2.46875 -10.140625 C 2 -10.140625 1.59375 -10.304688 1.25 -10.640625 C 0.914062 -10.984375 0.75 -11.390625 0.75 -11.859375 C 0.75 -12.328125 0.914062 -12.726562 1.25 -13.0625 Z M 0.984375 -8.390625 L 0.984375 0 L 3.875 0 L 3.875 -8.390625 Z M 0.984375 -8.390625 "/></g></g></g><g fill="#ffffff" fill-opacity="1"><g transform="translate(39.593124, 21.557126)"><g><path d="M 5.453125 -6.265625 C 4.898438 -6.265625 4.425781 -6.0625 4.03125 -5.65625 C 3.644531 -5.257812 3.453125 -4.773438 3.453125 -4.203125 C 3.453125 -3.628906 3.644531 -3.140625 4.03125 -2.734375 C 4.425781 -2.328125 4.898438 -2.125 5.453125 -2.125 C 5.710938 -2.125 5.957031 -2.15625 6.1875 -2.21875 C 6.425781 -2.289062 6.597656 -2.359375 6.703125 -2.421875 L 6.859375 -2.515625 L 7.84375 -0.5 C 7.757812 -0.445312 7.648438 -0.378906 7.515625 -0.296875 C 7.378906 -0.222656 7.066406 -0.113281 6.578125 0.03125 C 6.097656 0.175781 5.578125 0.25 5.015625 0.25 C 3.785156 0.25 2.703125 -0.179688 1.765625 -1.046875 C 0.835938 -1.921875 0.375 -2.960938 0.375 -4.171875 C 0.375 -5.390625 0.835938 -6.4375 1.765625 -7.3125 C 2.703125 -8.195312 3.785156 -8.640625 5.015625 -8.640625 C 5.578125 -8.640625 6.09375 -8.570312 6.5625 -8.4375 C 7.03125 -8.3125 7.363281 -8.179688 7.5625 -8.046875 L 7.84375 -7.859375 L 6.859375 -5.875 C 6.492188 -6.132812 6.023438 -6.265625 5.453125 -6.265625 Z M 5.453125 -6.265625 "/></g></g></g><g fill="#ffffff" fill-opacity="1"><g transform="translate(47.622898, 21.557126)"><g><path d="M 1.765625 -0.984375 C 0.835938 -1.816406 0.375 -2.882812 0.375 -4.1875 C 0.375 -5.488281 0.859375 -6.554688 1.828125 -7.390625 C 2.796875 -8.222656 4 -8.640625 5.4375 -8.640625 C 6.84375 -8.640625 8.023438 -8.21875 8.984375 -7.375 C 9.953125 -6.539062 10.4375 -5.476562 10.4375 -4.1875 C 10.4375 -2.894531 9.960938 -1.832031 9.015625 -1 C 8.078125 -0.164062 6.882812 0.25 5.4375 0.25 C 3.925781 0.25 2.703125 -0.160156 1.765625 -0.984375 Z M 4.015625 -5.609375 C 3.640625 -5.242188 3.453125 -4.769531 3.453125 -4.1875 C 3.453125 -3.613281 3.628906 -3.140625 3.984375 -2.765625 C 4.347656 -2.398438 4.828125 -2.21875 5.421875 -2.21875 C 5.984375 -2.21875 6.445312 -2.40625 6.8125 -2.78125 C 7.175781 -3.15625 7.359375 -3.625 7.359375 -4.1875 C 7.359375 -4.769531 7.171875 -5.242188 6.796875 -5.609375 C 6.421875 -5.984375 5.960938 -6.171875 5.421875 -6.171875 C 4.859375 -6.171875 4.390625 -5.984375 4.015625 -5.609375 Z M 4.015625 -5.609375 "/></g></g></g><g fill="#ffffff" fill-opacity="1"><g transform="translate(58.432844, 21.557126)"><g><path d="M 0.984375 -13.5 L 5.171875 -13.5 C 6.429688 -13.5 7.4375 -13.226562 8.1875 -12.6875 C 8.945312 -12.144531 9.328125 -11.269531 9.328125 -10.0625 C 9.328125 -8.707031 8.765625 -7.742188 7.640625 -7.171875 C 9.554688 -6.828125 10.515625 -5.691406 10.515625 -3.765625 C 10.515625 -2.628906 10.117188 -1.71875 9.328125 -1.03125 C 8.546875 -0.34375 7.472656 0 6.109375 0 L 0.984375 0 Z M 4.0625 -8.21875 L 4.296875 -8.21875 C 4.984375 -8.21875 5.492188 -8.335938 5.828125 -8.578125 C 6.171875 -8.816406 6.34375 -9.207031 6.34375 -9.75 C 6.34375 -10.664062 5.660156 -11.125 4.296875 -11.125 L 4.0625 -11.125 Z M 4.0625 -2.375 L 5.015625 -2.375 C 6.523438 -2.375 7.28125 -2.875 7.28125 -3.875 C 7.28125 -4.476562 7.09375 -4.910156 6.71875 -5.171875 C 6.34375 -5.429688 5.773438 -5.5625 5.015625 -5.5625 L 4.0625 -5.5625 Z M 4.0625 -2.375 "/></g></g></g><g fill="#ffffff" fill-opacity="1"><g transform="translate(69.324563, 21.557126)"><g><path d="M 1.546875 -1.03125 C 0.765625 -1.894531 0.375 -2.945312 0.375 -4.1875 C 0.375 -5.425781 0.765625 -6.476562 1.546875 -7.34375 C 2.335938 -8.207031 3.335938 -8.640625 4.546875 -8.640625 C 5.660156 -8.640625 6.578125 -8.289062 7.296875 -7.59375 L 7.296875 -8.390625 L 10.1875 -8.390625 L 10.1875 0 L 7.328125 0 L 7.328125 -0.953125 L 7.296875 -0.953125 C 6.578125 -0.148438 5.660156 0.25 4.546875 0.25 C 3.335938 0.25 2.335938 -0.175781 1.546875 -1.03125 Z M 4.015625 -5.609375 C 3.640625 -5.242188 3.453125 -4.769531 3.453125 -4.1875 C 3.453125 -3.613281 3.628906 -3.140625 3.984375 -2.765625 C 4.347656 -2.398438 4.828125 -2.21875 5.421875 -2.21875 C 5.984375 -2.21875 6.445312 -2.40625 6.8125 -2.78125 C 7.175781 -3.15625 7.359375 -3.625 7.359375 -4.1875 C 7.359375 -4.769531 7.171875 -5.242188 6.796875 -5.609375 C 6.421875 -5.984375 5.960938 -6.171875 5.421875 -6.171875 C 4.859375 -6.171875 4.390625 -5.984375 4.015625 -5.609375 Z M 4.015625 -5.609375 "/></g></g></g><g fill="#ffffff" fill-opacity="1"><g transform="translate(80.49429, 21.557126)"><g><path d="M 9.09375 -8.390625 L 4.9375 -2.203125 L 8.765625 -2.203125 L 8.765625 0 L 0.078125 0 L 4.234375 -6.1875 L 0.765625 -6.1875 L 0.765625 -8.390625 Z M 9.09375 -8.390625 "/></g></g></g><g fill="#ffffff" fill-opacity="1"><g transform="translate(89.668844, 21.557126)"><g><path d="M 1.546875 -1.03125 C 0.765625 -1.894531 0.375 -2.945312 0.375 -4.1875 C 0.375 -5.425781 0.765625 -6.476562 1.546875 -7.34375 C 2.335938 -8.207031 3.335938 -8.640625 4.546875 -8.640625 C 5.660156 -8.640625 6.578125 -8.289062 7.296875 -7.59375 L 7.296875 -8.390625 L 10.1875 -8.390625 L 10.1875 0 L 7.328125 0 L 7.328125 -0.953125 L 7.296875 -0.953125 C 6.578125 -0.148438 5.660156 0.25 4.546875 0.25 C 3.335938 0.25 2.335938 -0.175781 1.546875 -1.03125 Z M 4.015625 -5.609375 C 3.640625 -5.242188 3.453125 -4.769531 3.453125 -4.1875 C 3.453125 -3.613281 3.628906 -3.140625 3.984375 -2.765625 C 4.347656 -2.398438 4.828125 -2.21875 5.421875 -2.21875 C 5.984375 -2.21875 6.445312 -2.40625 6.8125 -2.78125 C 7.175781 -3.15625 7.359375 -3.625 7.359375 -4.1875 C 7.359375 -4.769531 7.171875 -5.242188 6.796875 -5.609375 C 6.421875 -5.984375 5.960938 -6.171875 5.421875 -6.171875 C 4.859375 -6.171875 4.390625 -5.984375 4.015625 -5.609375 Z M 4.015625 -5.609375 "/></g></g></g><g fill="#ffffff" fill-opacity="1"><g transform="translate(100.838571, 21.557126)"><g><path d="M 0.984375 0 L 0.984375 -8.390625 L 3.875 -8.390625 L 3.875 -7.1875 L 3.90625 -7.1875 C 3.925781 -7.226562 3.960938 -7.28125 4.015625 -7.34375 C 4.066406 -7.40625 4.171875 -7.519531 4.328125 -7.6875 C 4.492188 -7.851562 4.671875 -8 4.859375 -8.125 C 5.046875 -8.257812 5.285156 -8.378906 5.578125 -8.484375 C 5.867188 -8.585938 6.171875 -8.640625 6.484375 -8.640625 C 6.796875 -8.640625 7.101562 -8.59375 7.40625 -8.5 C 7.71875 -8.414062 7.941406 -8.332031 8.078125 -8.25 L 8.3125 -8.109375 L 7.09375 -5.65625 C 6.738281 -5.96875 6.238281 -6.125 5.59375 -6.125 C 5.25 -6.125 4.945312 -6.046875 4.6875 -5.890625 C 4.4375 -5.734375 4.257812 -5.546875 4.15625 -5.328125 C 4.0625 -5.109375 3.988281 -4.921875 3.9375 -4.765625 C 3.894531 -4.617188 3.875 -4.503906 3.875 -4.421875 L 3.875 0 Z M 0.984375 0 "/></g></g></g><path fill="#00a451" d="M 8.960938 18.421875 L 6.566406 16.949219 L 5.339844 18.179688 L 4.375 23.007812 L 8.960938 18.421875 " fill-opacity="1" fill-rule="nonzero"/><g clip-path="url(#3cdaebea8b)"><path fill="#00a451" d="M 11.054688 20.519531 L 7.515625 24.058594 L 11.378906 24.058594 L 12.527344 22.910156 L 11.054688 20.519531 " fill-opacity="1" fill-rule="nonzero"/></g><g clip-path="url(#c9a71df68c)"><path fill="#00ff7d" d="M 16.28125 8.859375 C 15.917969 8.859375 15.621094 8.566406 15.621094 8.203125 C 15.621094 7.839844 15.917969 7.546875 16.28125 7.546875 C 16.644531 7.546875 16.9375 7.839844 16.9375 8.203125 C 16.9375 8.566406 16.644531 8.859375 16.28125 8.859375 Z M 9.480469 8.859375 C 9.117188 8.859375 8.824219 8.566406 8.824219 8.203125 C 8.824219 7.839844 9.117188 7.546875 9.480469 7.546875 C 9.84375 7.546875 10.140625 7.839844 10.140625 8.203125 C 10.140625 8.566406 9.84375 8.859375 9.480469 8.859375 Z M 21.507812 23.609375 L 18.820312 6.832031 C 18.785156 6.65625 18.632812 6.527344 18.453125 6.527344 L 7.308594 6.527344 C 7.128906 6.527344 6.976562 6.65625 6.941406 6.832031 L 5.339844 18.179688 L 6.566406 16.949219 L 14.710938 14.769531 L 12.527344 22.910156 L 11.378906 24.058594 L 21.136719 24.058594 C 21.375 24.058594 21.550781 23.84375 21.507812 23.609375 " fill-opacity="1" fill-rule="nonzero"/></g><g clip-path="url(#769a5f5cce)"><path fill="#00a451" d="M 16.28125 8.488281 C 16.121094 8.488281 15.996094 8.363281 15.996094 8.203125 C 15.996094 6.628906 15.667969 5.292969 15.042969 4.335938 C 14.484375 3.472656 13.714844 2.996094 12.882812 2.996094 C 12.046875 2.996094 11.277344 3.472656 10.71875 4.335938 C 10.097656 5.292969 9.765625 6.628906 9.765625 8.203125 C 9.765625 8.363281 9.640625 8.488281 9.480469 8.488281 C 9.324219 8.488281 9.195312 8.363281 9.195312 8.203125 C 9.195312 6.519531 9.554688 5.074219 10.238281 4.023438 C 10.90625 2.992188 11.847656 2.421875 12.882812 2.421875 C 13.917969 2.421875 14.855469 2.992188 15.523438 4.023438 C 16.207031 5.074219 16.566406 6.519531 16.566406 8.203125 C 16.566406 8.363281 16.4375 8.488281 16.28125 8.488281 " fill-opacity="1" fill-rule="nonzero"/></g><g clip-path="url(#88b9504050)"><path fill="#00a451" d="M 6.277344 6.832031 L 1.570312 22.734375 L 2.953125 22.289062 L 3.609375 23.109375 L 6.277344 6.832031 " fill-opacity="1" fill-rule="nonzero"/></g></svg>