<svg width="150" height="29" viewBox="0 0 150 29" fill="none" xmlns="http://www.w3.org/2000/svg">
<path d="M3.68999 3.22829C5.72966 1.28091 8.49926 0.144267 11.3063 0.00288306C12.267 0.00288306 13.2306 0.00864721 14.1913 0C14.1423 1.02995 14.1913 2.06277 14.1624 3.09267C14.0269 5.39488 13.1758 7.64516 11.742 9.45115C9.87827 11.8803 7.02791 13.5103 4.00159 13.9315C2.68027 14.145 1.33873 14.0094 0.00877274 14.0469C0.031832 12.9131 -0.0402775 11.7765 0.0491747 10.6455C0.308835 7.84136 1.63303 5.15545 3.68999 3.22829Z" fill="#B7BFC7"/>
<path d="M15.0808 0C16.1108 0.0115296 17.1407 -0.00576536 18.1735 0.00576425C20.744 0.187502 23.2799 1.17416 25.2156 2.88499C27.3505 4.71693 28.8132 7.3365 29.1884 10.1349C29.3526 11.4331 29.249 12.7458 29.3125 14.0498C28.4121 14.0469 27.5152 14.044 26.6148 14.0498C24.4022 13.9892 22.2269 13.2738 20.3748 12.0678C19.5208 11.4562 18.6438 10.836 18.0033 9.98777C16.5983 8.41838 15.6434 6.44793 15.2828 4.37075C15.0116 2.92823 15.1212 1.45693 15.0808 0Z" fill="#B7BFC7"/>
<path d="M0.0106588 14.8748C0.925211 14.9267 1.84264 14.8315 2.75427 14.9325C6.65762 15.0161 10.4456 17.2087 12.468 20.5466C13.6278 22.416 14.2509 24.6318 14.1701 26.8332C14.1672 27.5542 14.1788 28.2724 14.1586 28.9911C12.7103 28.9476 11.2476 29.0658 9.81381 28.7859C6.6288 28.2494 3.70057 26.3539 1.93781 23.648C0.602088 21.6804 -0.0643338 19.2772 0.00489274 16.9029C0.00489274 16.2249 0.00489404 15.5498 0.0106588 14.8748Z" fill="#B7BFC7"/>
<path d="M24.4377 15.1805C26.0074 14.8314 27.6254 14.8891 29.221 14.8891L29.2904 14.9583C29.2557 16.4671 29.3739 17.9933 29.071 19.4848C28.4335 22.8314 26.218 25.8204 23.2376 27.4619C21.3826 28.4947 19.2535 29.0023 17.133 28.9794C16.4551 28.9823 15.7742 28.9676 15.0962 28.9882C15.0962 27.739 15.0443 26.4839 15.1857 25.2405C15.5146 22.2313 17.1417 19.43 19.4814 17.5375C20.9296 16.395 22.6318 15.5671 24.4377 15.1805Z" fill="#B7BFC7"/>
<path d="M41.134 23.4032C41.134 23.9111 40.9581 24.3409 40.6068 24.6924C40.2746 25.0246 39.8545 25.1907 39.3469 25.1907C38.8583 25.1907 38.448 25.0246 38.1162 24.6924C37.784 24.3409 37.6179 23.9111 37.6179 23.4032V5.29471C37.6179 4.78682 37.784 4.36682 38.1162 4.03476C38.4675 3.68315 38.8974 3.50732 39.4055 3.50732C39.9131 3.50732 40.3235 3.68315 40.6361 4.03476C40.9679 4.36682 41.134 4.78682 41.134 5.29471V23.4032Z" fill="#B7BFC7"/>
<path d="M55.2474 9.51416C55.755 9.51416 56.1752 9.68994 56.5074 10.0416C56.8391 10.3737 57.0052 10.7937 57.0052 11.3015V18.7442C57.0052 20.8148 56.4292 22.4558 55.2767 23.6669C54.1238 24.878 52.4637 25.4838 50.2951 25.4838C48.1269 25.4838 46.4664 24.878 45.3139 23.6669C44.181 22.4558 43.6143 20.8148 43.6143 18.7442V11.3015C43.6143 10.7937 43.7804 10.3737 44.1126 10.0416C44.4448 9.68994 44.8644 9.51416 45.3725 9.51416C45.8806 9.51416 46.3003 9.68994 46.6325 10.0416C46.9647 10.3737 47.1308 10.7937 47.1308 11.3015V18.7442C47.1308 19.9358 47.3946 20.8246 47.9217 21.4107C48.4494 21.9772 49.2403 22.2604 50.2951 22.2604C51.3699 22.2604 52.1706 21.9772 52.6982 21.4107C53.2254 20.8246 53.4892 19.9358 53.4892 18.7442V11.3015C53.4892 10.7937 53.6553 10.3737 53.9875 10.0416C54.3192 9.68994 54.7394 9.51416 55.2474 9.51416Z" fill="#B7BFC7"/>
<path d="M67.5808 9.22119C69.1437 9.22119 70.2961 9.60211 71.0387 10.3639C71.7808 11.1063 72.2694 12.0732 72.5034 13.2648L72.0056 13.0011L72.2401 12.5323C72.4741 12.083 72.8356 11.6044 73.3241 11.0965C73.8122 10.5691 74.3984 10.1295 75.0819 9.77794C75.7854 9.40674 76.5666 9.22119 77.4264 9.22119C78.8329 9.22119 79.8975 9.52399 80.62 10.1295C81.3626 10.7351 81.8702 11.5458 82.1438 12.5616C82.4174 13.5578 82.5542 14.6713 82.5542 15.902V23.4032C82.5542 23.9111 82.3881 24.3409 82.0559 24.6924C81.7237 25.0246 81.304 25.1907 80.7959 25.1907C80.2883 25.1907 79.8682 25.0246 79.536 24.6924C79.2037 24.3409 79.0376 23.9111 79.0376 23.4032V15.902C79.0376 15.2573 78.96 14.6811 78.8036 14.1732C78.6473 13.6457 78.3639 13.2258 77.9536 12.9132C77.5437 12.6006 76.9574 12.4444 76.1958 12.4444C75.4532 12.4444 74.8186 12.6006 74.291 12.9132C73.7633 13.2258 73.3632 13.6457 73.0896 14.1732C72.8356 14.6811 72.7086 15.2573 72.7086 15.902V23.4032C72.7086 23.9111 72.5425 24.3409 72.2107 24.6924C71.8785 25.0246 71.4584 25.1907 70.9508 25.1907C70.4427 25.1907 70.0226 25.0246 69.6908 24.6924C69.3586 24.3409 69.1925 23.9111 69.1925 23.4032V15.902C69.1925 15.2573 69.1144 14.6811 68.958 14.1732C68.8017 13.6457 68.5183 13.2258 68.1084 12.9132C67.6981 12.6006 67.1118 12.4444 66.3502 12.4444C65.6081 12.4444 64.973 12.6006 64.4454 12.9132C63.9182 13.2258 63.5176 13.6457 63.244 14.1732C62.9905 14.6811 62.8635 15.2573 62.8635 15.902V23.4032C62.8635 23.9111 62.6973 24.3409 62.3651 24.6924C62.0329 25.0246 61.6133 25.1907 61.1052 25.1907C60.5971 25.1907 60.1774 25.0246 59.8452 24.6924C59.513 24.3409 59.3469 23.9111 59.3469 23.4032V11.3016C59.3469 10.7937 59.513 10.3737 59.8452 10.0416C60.1774 9.69 60.5971 9.51422 61.1052 9.51422C61.6133 9.51422 62.0329 9.69 62.3651 10.0416C62.6973 10.3737 62.8635 10.7937 62.8635 11.3016V12.5616L62.4238 12.4737C62.5996 12.1416 62.8439 11.7899 63.1561 11.4188C63.4688 11.0281 63.8498 10.6667 64.2993 10.3346C64.7483 10.0026 65.2466 9.73885 65.7932 9.54348C66.3404 9.32862 66.9364 9.22119 67.5808 9.22119Z" fill="#B7BFC7"/>
<path d="M88.2053 23.4031C88.2053 23.911 88.0392 24.3408 87.707 24.6923C87.3753 25.0245 86.9551 25.1906 86.447 25.1906C85.9394 25.1906 85.5193 25.0245 85.1871 24.6923C84.8554 24.3408 84.6893 23.911 84.6893 23.4031V11.3015C84.6893 10.7936 84.8554 10.3736 85.1871 10.0415C85.5193 9.68989 85.9394 9.51412 86.447 9.51412C86.9551 9.51412 87.3753 9.68989 87.707 10.0415C88.0392 10.3736 88.2053 10.7936 88.2053 11.3015V23.4031ZM86.4177 7.60948C85.7538 7.60948 85.2848 7.50205 85.0112 7.28714C84.7381 7.07228 84.6013 6.69137 84.6013 6.14439V5.58765C84.6013 5.02118 84.7479 4.64022 85.0405 4.4449C85.3532 4.23004 85.8222 4.12256 86.447 4.12256C87.131 4.12256 87.6098 4.23004 87.8829 4.4449C88.1564 4.65976 88.2932 5.04068 88.2932 5.58765V6.14439C88.2932 6.71091 88.1467 7.1016 87.8535 7.31646C87.5609 7.51182 87.0821 7.60948 86.4177 7.60948Z" fill="#B7BFC7"/>
<path d="M98.7345 9.22119C100.18 9.22119 101.274 9.52399 102.016 10.1295C102.778 10.7351 103.296 11.5458 103.569 12.5616C103.862 13.5578 104.009 14.6713 104.009 15.902V23.4032C104.009 23.9111 103.843 24.3409 103.51 24.6924C103.178 25.0246 102.759 25.1907 102.251 25.1907C101.743 25.1907 101.323 25.0246 100.991 24.6924C100.658 24.3409 100.492 23.9111 100.492 23.4032V15.902C100.492 15.2573 100.405 14.6811 100.229 14.1732C100.073 13.6457 99.7795 13.2258 99.3495 12.9132C98.9201 12.6006 98.3045 12.4444 97.5038 12.4444C96.7222 12.4444 96.0582 12.6006 95.5111 12.9132C94.9839 13.2258 94.5735 13.6457 94.2804 14.1732C94.0068 14.6811 93.87 15.2573 93.87 15.902V23.4032C93.87 23.9111 93.7044 24.3409 93.3722 24.6924C93.04 25.0246 92.6199 25.1907 92.1123 25.1907C91.6042 25.1907 91.184 25.0246 90.8523 24.6924C90.5201 24.3409 90.354 23.9111 90.354 23.4032V11.3016C90.354 10.7937 90.5201 10.3737 90.8523 10.0416C91.184 9.69 91.6042 9.51422 92.1123 9.51422C92.6199 9.51422 93.04 9.69 93.3722 10.0416C93.7044 10.3737 93.87 10.7937 93.87 11.3016V12.5616L93.4308 12.4737C93.6067 12.1416 93.8603 11.7899 94.1925 11.4188C94.5247 11.0281 94.9155 10.6667 95.3645 10.3346C95.814 10.0026 96.322 9.73885 96.8883 9.54348C97.455 9.32862 98.0701 9.22119 98.7345 9.22119Z" fill="#B7BFC7"/>
<path d="M121.405 17.3671C121.405 18.9689 121.044 20.3852 120.321 21.6158C119.618 22.827 118.661 23.7744 117.45 24.4579C116.258 25.1419 114.92 25.4839 113.435 25.4839C111.95 25.4839 110.603 25.1419 109.392 24.4579C108.2 23.7744 107.243 22.827 106.52 21.6158C105.817 20.3852 105.465 18.9689 105.465 17.3671C105.465 15.7652 105.817 14.3588 106.52 13.1476C107.243 11.9169 108.2 10.9598 109.392 10.2761C110.603 9.5728 111.95 9.22119 113.435 9.22119C114.92 9.22119 116.258 9.5728 117.45 10.2761C118.661 10.9598 119.618 11.9169 120.321 13.1476C121.044 14.3588 121.405 15.7652 121.405 17.3671ZM117.889 17.3671C117.889 16.3708 117.684 15.5113 117.274 14.7885C116.883 14.0462 116.346 13.47 115.662 13.0597C114.998 12.6495 114.255 12.4444 113.435 12.4444C112.615 12.4444 111.863 12.6495 111.179 13.0597C110.515 13.47 109.977 14.0462 109.567 14.7885C109.177 15.5113 108.981 16.3708 108.981 17.3671C108.981 18.3438 109.177 19.2033 109.567 19.9456C109.977 20.6684 110.515 21.2349 111.179 21.6451C111.863 22.0554 112.615 22.2604 113.435 22.2604C114.255 22.2604 114.998 22.0554 115.662 21.6451C116.346 21.2349 116.883 20.6684 117.274 19.9456C117.684 19.2033 117.889 18.3438 117.889 17.3671Z" fill="#B7BFC7"/>
<path d="M134.511 9.51416C135.019 9.51416 135.439 9.68994 135.771 10.0416C136.103 10.3737 136.269 10.7937 136.269 11.3015V18.7442C136.269 20.8148 135.693 22.4558 134.54 23.6669C133.387 24.878 131.727 25.4838 129.559 25.4838C127.391 25.4838 125.73 24.878 124.578 23.6669C123.445 22.4558 122.878 20.8148 122.878 18.7442V11.3015C122.878 10.7937 123.044 10.3737 123.376 10.0416C123.708 9.68994 124.128 9.51416 124.636 9.51416C125.144 9.51416 125.564 9.68994 125.896 10.0416C126.228 10.3737 126.394 10.7937 126.394 11.3015V18.7442C126.394 19.9358 126.658 20.8246 127.185 21.4107C127.713 21.9772 128.504 22.2604 129.559 22.2604C130.633 22.2604 131.434 21.9772 131.961 21.4107C132.489 20.8246 132.753 19.9358 132.753 18.7442V11.3015C132.753 10.7937 132.919 10.3737 133.251 10.0416C133.583 9.68994 134.003 9.51416 134.511 9.51416Z" fill="#B7BFC7"/>
<path d="M137.702 22.7586C137.507 22.4851 137.419 22.1335 137.438 21.7038C137.458 21.274 137.712 20.9028 138.201 20.5903C138.513 20.3949 138.845 20.3168 139.197 20.3559C139.548 20.3754 139.89 20.5512 140.222 20.8833C140.789 21.4498 141.384 21.8893 142.01 22.2019C142.635 22.5144 143.416 22.6707 144.354 22.6707C144.647 22.6511 144.969 22.6121 145.321 22.5535C145.672 22.4754 145.975 22.3191 146.229 22.0847C146.502 21.8307 146.639 21.4498 146.639 20.9419C146.639 20.5121 146.493 20.1703 146.2 19.9163C145.907 19.6624 145.516 19.4475 145.027 19.2717C144.559 19.0959 144.031 18.9299 143.446 18.7736C142.84 18.5977 142.214 18.4024 141.57 18.1875C140.945 17.9727 140.369 17.6992 139.841 17.3671C139.314 17.0155 138.884 16.5564 138.552 15.9899C138.22 15.4234 138.054 14.7104 138.054 13.8509C138.054 12.8741 138.327 12.0439 138.874 11.3602C139.421 10.6765 140.124 10.1491 140.984 9.77794C141.863 9.40674 142.781 9.22119 143.738 9.22119C144.344 9.22119 144.979 9.29931 145.643 9.45559C146.307 9.59234 146.942 9.82674 147.547 10.1588C148.153 10.4714 148.661 10.8914 149.071 11.4188C149.286 11.7118 149.413 12.0634 149.452 12.4737C149.491 12.8839 149.306 13.255 148.895 13.5872C148.603 13.8216 148.261 13.929 147.87 13.9094C147.479 13.8704 147.157 13.7337 146.903 13.4993C146.571 13.0695 146.122 12.7276 145.555 12.4737C145.008 12.2197 144.373 12.0927 143.65 12.0927C143.358 12.0927 143.035 12.1318 142.683 12.2099C142.351 12.2686 142.059 12.4151 141.805 12.6495C141.551 12.8644 141.424 13.216 141.424 13.7044C141.424 14.1537 141.57 14.515 141.863 14.7885C142.156 15.0425 142.547 15.2573 143.035 15.4332C143.543 15.5894 144.08 15.7457 144.647 15.902C145.233 16.0582 145.829 16.2438 146.434 16.4587C147.04 16.6736 147.596 16.9568 148.104 17.3085C148.612 17.6601 149.022 18.1192 149.335 18.6856C149.648 19.2326 149.804 19.9359 149.804 20.7954C149.804 21.7916 149.511 22.6414 148.925 23.3446C148.339 24.0479 147.606 24.5849 146.727 24.9562C145.848 25.308 144.949 25.4839 144.031 25.4839C142.879 25.4839 141.726 25.2884 140.574 24.8976C139.421 24.4872 138.464 23.7744 137.702 22.7586Z" fill="#B7BFC7"/>
</svg>
