<svg width="97" height="148" viewBox="0 0 97 148" fill="none" xmlns="http://www.w3.org/2000/svg">
<path d="M2.04363 9.26805C0.900795 12.0267 0.900742 15.5237 0.900848 22.5169C0.900902 29.5086 0.900902 33.0071 2.04327 35.765C3.56664 39.4428 6.4889 42.3651 10.1666 43.8884C12.925 45.0309 16.4217 45.0309 23.4152 45.0309C30.4048 45.0309 33.9061 45.0309 36.6634 43.8889C40.3414 42.3653 43.2637 39.4429 44.7868 35.7654C45.9296 33.0068 45.9293 29.5105 45.9296 22.5166C45.9294 15.5233 45.9242 12.0317 44.782 9.27304C43.2582 5.5958 40.3359 2.67354 36.6586 1.14968C33.9 0.00748228 30.4086 0.00260189 23.4153 0.00238901C16.4216 0.00275984 12.9251 0.00233399 10.1665 1.14517C6.48907 2.66823 3.5667 5.5906 2.04363 9.26805Z" fill="#E2FD70"/>
<path d="M2.04096 60.0535C0.898445 62.8118 0.898453 66.3087 0.898453 73.3021C0.898453 80.2937 0.898712 83.7926 2.0406 86.5501C3.56419 90.2281 6.48656 93.1504 10.164 94.6735C12.9226 95.8163 16.4196 95.8164 23.4128 95.8163C30.4026 95.8164 33.9033 95.816 36.6609 94.6738C40.3387 93.1504 43.261 90.2282 44.7842 86.5504C45.927 83.7923 45.9269 80.2954 45.9271 73.302C45.9273 66.3087 45.922 62.817 44.7791 60.0584C43.2561 56.3809 40.3337 53.4585 36.6557 51.935C33.8976 50.7926 30.4064 50.7879 23.4128 50.7878C16.4193 50.7878 12.9225 50.7878 10.1642 51.9303C6.48645 53.4537 3.56435 56.3758 2.04096 60.0535Z" fill="#E2FD70"/>
<path d="M51.6866 22.514C51.6864 29.5058 51.6864 33.0039 52.8284 35.7623C54.3519 39.4403 57.2743 42.3627 60.9518 43.8857C63.7107 45.0282 67.2072 45.0277 74.2009 45.0283C81.1897 45.0283 84.6916 45.0277 87.4489 43.8857C91.1264 42.3627 94.0488 39.4403 95.5723 35.7623C96.7148 33.0044 96.7148 29.5074 96.7148 22.5143C96.7154 15.5207 96.7101 12.0289 95.567 9.27049C94.044 5.59299 91.1216 2.67062 87.4436 1.14708C84.6857 0.00456137 81.1945 -0.000207976 74.2005 3.72399e-06C67.2073 -0.000155876 63.7103 -6.00755e-05 60.9523 1.14225C57.2743 2.66584 54.3524 5.58767 52.8288 9.26565C51.6865 12.0237 51.6864 15.5207 51.6866 22.514Z" fill="#E2FD70"/>
<path d="M52.8288 60.0532C51.6862 62.8121 51.6862 66.3092 51.6862 73.3023C51.6865 80.2941 51.6862 83.7924 52.8287 86.5504C54.3522 90.2284 57.2741 93.1502 60.9521 94.6738C63.7101 95.8161 67.2071 95.8163 74.2004 95.8161C81.1901 95.8162 84.6914 95.8162 87.4488 94.6742C91.1268 93.1507 94.0492 90.2283 95.5722 86.5508C96.7152 83.7924 96.7147 80.2959 96.7147 73.3017C96.7147 66.3087 96.7094 62.8169 95.5674 60.0585C94.0433 56.381 91.1215 53.4591 87.444 51.9351C84.6856 50.7931 81.1938 50.7878 74.2007 50.7878C67.2071 50.7883 63.7106 50.7878 60.9516 51.9303C57.2747 53.4538 54.3523 56.3762 52.8288 60.0532Z" fill="#E2FD70"/>
<path d="M2.04063 111.471C0.898109 114.229 0.898125 117.726 0.898125 124.72C0.898125 131.711 0.898384 135.21 2.04027 137.968C3.56385 141.646 6.48623 144.568 10.1637 146.091C12.9223 147.234 16.4193 147.234 23.4125 147.234C30.4023 147.234 33.903 147.234 36.6605 146.091C40.3384 144.568 43.2606 141.646 44.7839 137.968C45.9267 135.21 45.9265 131.713 45.9267 124.72C45.9269 117.726 45.9216 114.235 44.7788 111.476C43.2557 107.799 40.3334 104.876 36.6554 103.353C33.8973 102.21 30.4061 102.206 23.4125 102.205C16.4189 102.205 12.9222 102.205 10.1638 103.348C6.48611 104.871 3.56401 107.793 2.04063 111.471Z" fill="#E2FD70"/>
</svg>
