<svg width="134" height="22" viewBox="0 0 134 22" fill="none" xmlns="http://www.w3.org/2000/svg">
<path fill-rule="evenodd" clip-rule="evenodd" d="M13.5607 0.544434C11.4209 0.544434 9.68622 2.27911 9.68622 4.41892C9.68622 6.55875 11.4209 8.29341 13.5607 8.29341C15.7006 8.29341 17.4352 6.55875 17.4352 4.41892C17.4352 2.27911 15.7006 0.544434 13.5607 0.544434ZM5.98521 8.08201C10.0183 8.08201 13.2878 11.3515 13.2878 15.3846V21.3699H9.65549V15.3846C9.65549 14.955 9.58173 14.5428 9.44615 14.1598L4.11076 19.4952L1.54231 16.9266L6.68756 11.7815C6.46023 11.7374 6.22541 11.7143 5.98521 11.7143H0V8.08201H5.98521ZM21.2266 8.08201C17.1935 8.08201 13.9239 11.3515 13.9239 15.3846V21.3699H17.5563V15.3846C17.5563 15.0482 17.6016 14.7223 17.6863 14.4128L23.2675 19.994L25.8361 17.4255L20.2549 11.8444C20.5643 11.7596 20.8903 11.7143 21.2266 11.7143H27.2118V8.08201H21.2266Z" fill="#B7BFC7"/>
<path d="M33.0234 21.5794V0.701172H38.9364L45.276 18.5924H45.7332V0.701172H49.1164V21.5794H43.3255L36.8333 3.65765H36.4066V21.5794H33.0234Z" fill="#B7BFC7"/>
<path d="M62.67 18.8361L63.5233 18.7448L63.5843 21.2136C61.2679 21.6809 59.2156 21.9146 57.4275 21.9146C55.1721 21.9146 53.5465 21.2947 52.551 20.0553C51.5756 18.8157 51.0879 16.8347 51.0879 14.1119C51.0879 8.70688 53.2925 6.00439 57.7019 6.00439C61.9689 6.00439 64.1025 8.33095 64.1025 12.9841L63.8892 15.3614H54.4405C54.4609 16.6213 54.7352 17.5459 55.2636 18.135C55.7918 18.7244 56.7773 19.0189 58.2201 19.0189C59.6626 19.0189 61.1461 18.9581 62.67 18.8361ZM60.8412 12.8013C60.8412 11.2976 60.5973 10.2511 60.1096 9.66189C59.6425 9.05231 58.8398 8.74751 57.7019 8.74751C56.564 8.74751 55.731 9.06246 55.2026 9.69235C54.6946 10.3223 54.4304 11.3586 54.4103 12.8013H60.8412Z" fill="#B7BFC7"/>
<path d="M73.9721 9.1742H69.7659V15.8796C69.7659 17.1192 69.8574 17.942 70.0402 18.3484C70.2231 18.7547 70.6904 18.9581 71.4423 18.9581L73.9416 18.8666L74.0939 21.5182C72.7325 21.7824 71.6963 21.9146 70.9851 21.9146C69.2581 21.9146 68.0693 21.5182 67.4191 20.7258C66.789 19.9333 66.4742 18.4399 66.4742 16.2455V9.1742H64.5234V6.33965H66.4742V1.92017H69.7659V6.33965H73.9721V9.1742Z" fill="#B7BFC7"/>
<path d="M73.9844 6.3396H77.2457L79.6535 18.7447H80.263L83.1587 6.6444H86.5724L89.4678 18.7447H90.0773L92.4548 6.3396H95.7464L92.5156 21.5792H87.2429L84.8654 11.1248L82.4882 21.5792H77.2152L73.9844 6.3396Z" fill="#B7BFC7"/>
<path d="M97.8674 7.98554C98.9239 6.66478 100.671 6.00439 103.11 6.00439C105.548 6.00439 107.285 6.66478 108.322 7.98554C109.378 9.30628 109.907 11.2874 109.907 13.929C109.907 16.5705 109.399 18.5617 108.383 19.9028C107.367 21.2441 105.609 21.9146 103.11 21.9146C100.611 21.9146 98.8527 21.2441 97.8369 19.9028C96.8208 18.5617 96.313 16.5705 96.313 13.929C96.313 11.2874 96.831 9.30628 97.8674 7.98554ZM100.367 17.8912C100.834 18.7041 101.748 19.1104 103.11 19.1104C104.471 19.1104 105.386 18.7041 105.853 17.8912C106.32 17.0785 106.554 15.7476 106.554 13.8985C106.554 12.0494 106.3 10.7388 105.792 9.96666C105.304 9.19453 104.41 8.80846 103.11 8.80846C101.809 8.80846 100.905 9.19453 100.397 9.96666C99.9095 10.7388 99.6656 12.0494 99.6656 13.8985C99.6656 15.7476 99.8993 17.0785 100.367 17.8912Z" fill="#B7BFC7"/>
<path d="M111.682 21.5792V6.33966H114.974V8.16842C116.701 7.05085 118.428 6.32949 120.155 6.00439V9.32662C118.408 9.67203 116.914 10.1191 115.675 10.6677L115.005 10.942V21.5792H111.682Z" fill="#B7BFC7"/>
<path d="M124.494 21.5792H121.171V0H124.494V12.4659L126.383 12.2831L129.98 6.33966H133.698L129.309 13.4718L133.942 21.5792H130.193L126.475 15.148L124.494 15.3614V21.5792Z" fill="#B7BFC7"/>
</svg>
