<svg width="141" height="29" viewBox="0 0 141 29" fill="none" xmlns="http://www.w3.org/2000/svg">
<path d="M113.975 1.33228V27.3136H117.777V1.33228H113.975Z" fill="#B7BFC7"/>
<path fill-rule="evenodd" clip-rule="evenodd" d="M79.5907 27.733C78.0901 27.733 76.8366 27.3836 75.83 26.6845C75.7198 26.6082 75.6128 26.5286 75.5086 26.446V27.3137H72.1533V1.75171H75.9839V12.7024C76.9236 12.0982 78.0604 11.7961 79.3948 11.7961C80.8394 11.7961 82.0975 12.141 83.1694 12.8306C84.2413 13.5203 85.0707 14.4663 85.6576 15.6685C86.2542 16.8615 86.5523 18.2269 86.5523 19.7644C86.5523 21.2743 86.2589 22.6304 85.6716 23.8328C85.094 25.035 84.283 25.9856 83.2394 26.6845C82.1955 27.3836 80.9793 27.733 79.5907 27.733ZM75.844 17.3601C75.6202 18.0497 75.5086 18.8511 75.5086 19.7644C75.5086 20.6778 75.6202 21.4795 75.844 22.169C76.0675 22.8589 76.4313 23.3945 76.9342 23.7769C77.4469 24.1589 78.1274 24.3498 78.9754 24.3498C79.7955 24.3498 80.4667 24.145 80.9887 23.7349C81.5106 23.3249 81.8973 22.7749 82.1488 22.0851C82.4006 21.3863 82.5262 20.6128 82.5262 19.7644C82.5262 18.9257 82.396 18.1616 82.1348 17.4721C81.874 16.7729 81.4686 16.2184 80.9187 15.8083C80.3781 15.3889 79.6836 15.1792 78.8355 15.1792C78.0434 15.1792 77.4002 15.3703 76.9066 15.7524C76.4219 16.1345 76.0675 16.6703 75.844 17.3601Z" fill="#B7BFC7"/>
<path d="M66.1416 18.3947V27.3139H69.9438V17.3884C69.9438 15.7387 69.5011 14.4059 68.6158 13.3901C67.7397 12.3649 66.4397 11.8523 64.7156 11.8523C63.709 11.8523 62.791 12.076 61.9616 12.5233C61.2021 12.9289 60.5825 13.4863 60.1029 14.1956C59.7451 13.5519 59.2508 13.0225 58.6203 12.6072C57.8655 12.1039 56.8962 11.8523 55.7127 11.8523C54.6781 11.8523 53.7414 12.0806 52.9027 12.5373C52.2688 12.8863 51.7329 13.3305 51.2949 13.8699V12.2158H47.9399V27.3139H51.7702V18.1712C51.7702 17.3045 52.008 16.6008 52.4833 16.0602C52.968 15.5103 53.6062 15.2354 54.3983 15.2354C55.2281 15.2354 55.8756 15.515 56.3416 16.0742C56.8169 16.6241 57.0547 17.3977 57.0547 18.3947V27.3139H60.857V18.1712C60.857 17.5932 60.9643 17.0853 61.1788 16.6474C61.4023 16.2 61.7097 15.8552 62.1015 15.6129C62.4928 15.3612 62.9542 15.2354 63.4855 15.2354C64.3149 15.2354 64.9624 15.515 65.4284 16.0742C65.9037 16.6241 66.1416 17.3977 66.1416 18.3947Z" fill="#B7BFC7"/>
<path d="M34.317 27.1599C35.0625 27.5606 36.0271 27.7611 37.211 27.7611C38.6926 27.7611 39.9184 27.4397 40.8877 26.7965C41.3477 26.4943 41.753 26.1476 42.1038 25.7569V27.3138H45.4591V12.2156H41.6285V19.8764C41.6285 20.8084 41.5212 21.5632 41.307 22.1411C41.1018 22.7097 40.8364 23.1431 40.5099 23.4412C40.1838 23.7303 39.8344 23.9258 39.4617 24.0284C39.0889 24.131 38.7392 24.1823 38.4131 24.1823C37.6023 24.1823 36.9731 24.0005 36.5258 23.6371C36.0878 23.2736 35.771 22.8216 35.5751 22.281C35.3796 21.7404 35.263 21.2045 35.2257 20.6732C35.1884 20.1329 35.1698 19.6902 35.1698 19.3451V12.2156H31.3115V20.6872C31.3115 20.939 31.3298 21.3397 31.3672 21.8896C31.4045 22.4396 31.5117 23.0498 31.6889 23.721C31.8658 24.3825 32.1596 25.0211 32.5696 25.6363C32.989 26.2512 33.5716 26.7591 34.317 27.1599Z" fill="#B7BFC7"/>
<path d="M88.2305 12.2156V27.3138H92.0607V19.597C92.0607 19.0191 92.14 18.5018 92.2986 18.0451C92.4571 17.5791 92.6899 17.1784 92.9974 16.843C93.3052 16.4981 93.6826 16.2231 94.1299 16.0181C94.5773 15.8038 95.0759 15.6779 95.6258 15.6407C96.1848 15.5941 96.6741 15.636 97.0934 15.7665V12.2156C96.6368 12.1597 96.1801 12.1504 95.7234 12.1877C95.2668 12.2156 94.8241 12.2948 94.3954 12.4253C93.9667 12.5465 93.5706 12.7189 93.2072 12.9426C92.7319 13.2222 92.3312 13.5763 92.0051 14.005C91.8505 14.208 91.7106 14.4214 91.5854 14.6452V12.2156H88.2305Z" fill="#B7BFC7"/>
<path fill-rule="evenodd" clip-rule="evenodd" d="M105.1 27.7331C103.553 27.7331 102.187 27.4023 101.004 26.7405C99.8293 26.0696 98.9066 25.1516 98.2358 23.9864C97.5739 22.8123 97.2432 21.4702 97.2432 19.9603C97.2432 18.3108 97.5693 16.8755 98.2218 15.6546C98.874 14.4336 99.7733 13.4877 100.92 12.8167C102.066 12.1363 103.385 11.7961 104.876 11.7961C106.461 11.7961 107.807 12.1689 108.916 12.9145C110.025 13.6601 110.845 14.7086 111.377 16.06C111.908 17.4115 112.095 19.0003 111.936 20.827H101.335C101.453 21.7334 101.735 22.4695 102.178 23.0358C102.793 23.8002 103.693 24.1823 104.876 24.1823C105.622 24.1823 106.26 24.0191 106.791 23.693C107.323 23.3669 107.728 22.8962 108.007 22.281L111.81 23.3715C111.241 24.7509 110.342 25.8225 109.112 26.5866C107.891 27.351 106.554 27.7331 105.1 27.7331ZM107.435 16.1159C107.759 16.5574 107.977 17.1866 108.089 18.0031H101.434C101.583 17.3059 101.831 16.7326 102.178 16.2837C102.793 15.4915 103.749 15.0954 105.044 15.0954C106.153 15.0954 106.95 15.4356 107.435 16.1159Z" fill="#B7BFC7"/>
<path d="M120.849 27.3136V1.33228H124.652V27.3136H120.849Z" fill="#B7BFC7"/>
<path fill-rule="evenodd" clip-rule="evenodd" d="M128.885 27.1179C129.64 27.5279 130.558 27.7331 131.639 27.7331C132.943 27.7331 134.02 27.5092 134.868 27.0619C135.544 26.7018 136.182 26.1682 136.783 25.4604V27.3137H140.111V18.087C140.111 17.3975 140.083 16.7729 140.027 16.2138C139.971 15.6546 139.793 15.0954 139.495 14.5362C138.964 13.5296 138.181 12.8213 137.147 12.4113C136.112 12.0012 134.929 11.7961 133.596 11.7961C131.779 11.7961 130.343 12.1876 129.29 12.9705C128.237 13.7533 127.519 14.7692 127.137 16.018L130.576 17.1084C130.819 16.4188 131.243 15.9388 131.849 15.6686C132.454 15.3983 133.037 15.2631 133.596 15.2631C134.603 15.2631 135.32 15.4728 135.749 15.8922C136.085 16.2216 136.29 16.6973 136.362 17.3199C135.718 17.4175 135.109 17.5101 134.533 17.5977C133.554 17.7376 132.678 17.8868 131.904 18.045C131.131 18.2036 130.465 18.3854 129.905 18.5903C129.095 18.8884 128.447 19.2615 127.962 19.7088C127.487 20.1469 127.142 20.6545 126.927 21.2324C126.713 21.8103 126.606 22.4489 126.606 23.1477C126.606 23.9864 126.797 24.7552 127.179 25.4544C127.571 26.1439 128.139 26.6985 128.885 27.1179ZM134.211 24.3778C133.736 24.6203 133.149 24.7416 132.449 24.7416C132.011 24.7416 131.634 24.6763 131.317 24.5457C131 24.4151 130.753 24.2289 130.576 23.9864C130.409 23.7349 130.325 23.4365 130.325 23.0917C130.325 22.8403 130.376 22.6118 130.479 22.4069C130.59 22.2017 130.758 22.0155 130.982 21.8476C131.215 21.6704 131.517 21.5075 131.89 21.3583C132.217 21.2371 132.594 21.1252 133.023 21.0229C133.451 20.9203 134.015 20.8084 134.714 20.6871C135.163 20.6035 135.701 20.5079 136.327 20.401C136.319 20.6668 136.303 20.9673 136.28 21.3024C136.252 21.843 136.14 22.3183 135.945 22.7283C135.842 22.9425 135.646 23.2083 135.357 23.5251C135.078 23.8419 134.696 24.1263 134.211 24.3778Z" fill="#B7BFC7"/>
<path fill-rule="evenodd" clip-rule="evenodd" d="M10.3259 12.3245H0V16.8213C0 23.5358 5.4433 28.9792 12.1579 28.9792C18.8726 28.9792 24.3161 23.5358 24.3161 16.8213V12.3245H13.6569V5.16296C13.6569 2.31154 11.3453 0 8.49391 0C5.64249 0 3.33094 2.31154 3.33094 5.16296H6.66189C6.66189 4.15116 7.48213 3.33095 8.49391 3.33095C9.50572 3.33095 10.3259 4.15116 10.3259 5.16296V12.3245ZM10.3259 15.6554V21.9842H13.6569V15.6554H20.9851V16.8213C20.9851 21.6964 17.033 25.6483 12.1579 25.6483C7.28294 25.6483 3.33094 21.6964 3.33094 16.8213V15.6554H10.3259Z" fill="#B7BFC7"/>
</svg>
