<svg width="130" height="27" viewBox="0 0 130 27" fill="none" xmlns="http://www.w3.org/2000/svg">
<path d="M5.05244 0H0.447574C0.200379 0 0 0.200379 0 0.447574V9.12468L5.05244 0Z" fill="#B7BFC7"/>
<path d="M0 11.9156C0.0145461 11.9162 0.0292266 11.9166 0.0440413 11.9166H7.06459C7.61412 11.9166 8.0459 12.3861 7.99904 12.9326L7.39154 20.0176C7.30521 21.0244 8.6571 21.4347 9.14679 20.5503L16.4418 7.37543C16.7873 6.75147 16.3352 5.98634 15.621 5.98634H8.60048C8.05095 5.98634 7.61918 5.51688 7.66604 4.97035L8.09222 0H15.1768C21.7052 0 24.6318 8.21141 19.5826 12.3625L15.6355 15.6076C15.377 15.8202 15.3261 16.1969 15.5189 16.4708L22.3299 26.149C22.5389 26.4458 22.3268 26.8544 21.964 26.8544H0.447574C0.200379 26.8544 0 26.6539 0 26.4068V11.9156Z" fill="#B7BFC7"/>
<path d="M76.6945 14.5373V21.323H80.4425V13.7044C80.4425 12.8062 80.2469 12.0223 79.8548 11.3527C79.4793 10.6667 78.9404 10.1359 78.2382 9.76042C77.5355 9.36835 76.7191 9.17235 75.7881 9.17235C74.8737 9.17235 74.065 9.36835 73.3632 9.76042C73.1765 9.8601 73.0011 9.97154 72.8364 10.0944C72.7473 10.1606 72.6618 10.2303 72.579 10.3033V4.02808H68.8311V21.323H72.579V14.5373C72.579 14.1291 72.669 13.7698 72.8489 13.4595C73.0284 13.1328 73.2732 12.8877 73.5834 12.7245C73.894 12.5449 74.253 12.455 74.6611 12.455C75.2493 12.455 75.7313 12.6511 76.1068 13.0429C76.4989 13.4186 76.6945 13.9167 76.6945 14.5373Z" fill="#B7BFC7"/>
<path fill-rule="evenodd" clip-rule="evenodd" d="M35.0514 14.1944V21.323H31.2058V4.02808H38.2605C39.404 4.02808 40.4084 4.2486 41.274 4.68937C42.1391 5.11402 42.8172 5.71019 43.3073 6.47769C43.7969 7.24523 44.0418 8.12727 44.0418 9.12339C44.0418 10.1359 43.7969 11.026 43.3073 11.7935C42.8172 12.5449 42.1315 13.1328 41.2494 13.5574C40.7575 13.7943 40.2173 13.9651 39.6287 14.0698L45.1692 21.323H40.6125L35.4542 14.1944H35.0514ZM35.0514 11.3527H37.7954C38.563 11.3527 39.1511 11.1567 39.5593 10.7646C39.9836 10.3728 40.1962 9.84192 40.1962 9.17235C40.1962 8.55188 39.9921 8.03744 39.5835 7.62921C39.1753 7.22075 38.5876 7.01661 37.8201 7.01661H35.0514V11.3527Z" fill="#B7BFC7"/>
<path fill-rule="evenodd" clip-rule="evenodd" d="M47.6425 20.8087C48.6553 21.3312 49.8065 21.5926 51.0964 21.5926C52.0931 21.5926 53.0075 21.421 53.8405 21.0781C54.6729 20.735 55.3837 20.2206 55.9718 19.5348L53.9138 17.477C53.5544 17.8852 53.1382 18.1956 52.6642 18.408C52.1907 18.6038 51.6603 18.7019 51.0718 18.7019C50.4353 18.7019 49.8799 18.5713 49.4063 18.3099C48.9489 18.0323 48.59 17.6485 48.3286 17.1586C48.2462 16.9885 48.1782 16.8076 48.1236 16.6155L56.6575 16.5952C56.7228 16.2849 56.7635 16.0154 56.7797 15.7868C56.7913 15.7014 56.8003 15.6181 56.8079 15.5366C56.8119 15.4962 56.8146 15.4564 56.8173 15.417C56.8213 15.3578 56.8244 15.2997 56.8262 15.2426L56.828 15.1797L56.8289 15.1008C56.8289 13.9412 56.568 12.9123 56.0452 12.0141C55.539 11.1159 54.8367 10.4137 53.9385 9.90734C53.0402 9.40123 52.0027 9.14795 50.8274 9.14795C49.6185 9.14795 48.5327 9.41739 47.569 9.95631C46.6054 10.4952 45.8378 11.2385 45.2663 12.1857C44.7108 13.1164 44.4333 14.1781 44.4333 15.3703C44.4333 16.5624 44.7193 17.6322 45.2904 18.5793C45.8624 19.5265 46.6466 20.2697 47.6425 20.8087ZM48.1245 14.0426C48.1428 13.9788 48.1625 13.9163 48.1836 13.8551C48.2194 13.752 48.2592 13.6525 48.304 13.5574C48.5492 13.0675 48.884 12.6918 49.3083 12.4306C49.7492 12.1529 50.2639 12.0141 50.8516 12.0141C51.4065 12.0141 51.872 12.1367 52.248 12.3817L52.2986 12.4118L52.3487 12.444C52.3912 12.4722 52.4319 12.5019 52.4718 12.5329C52.5107 12.5633 52.5488 12.5952 52.5855 12.6284C52.8133 12.8347 52.9945 13.0955 53.1297 13.4106C53.2121 13.595 53.2783 13.8007 53.3289 14.0278L48.1245 14.0426Z" fill="#B7BFC7"/>
<path d="M63.4156 21.5926C62.1901 21.5926 61.0797 21.3231 60.0834 20.7842C59.0875 20.2453 58.3038 19.502 57.7318 18.5548C57.1603 17.6077 56.8743 16.546 56.8743 15.3703C56.8743 14.1781 57.1603 13.1164 57.7318 12.1857C58.3199 11.2385 59.1117 10.4952 60.108 9.95631C61.1043 9.41739 62.2228 9.14795 63.4643 9.14795C64.3948 9.14795 65.2439 9.3114 66.0119 9.63791C66.4031 9.79286 66.7724 9.98845 67.1188 10.2247C67.4661 10.4618 67.7915 10.7398 68.094 11.0589L65.6933 13.4596C65.4158 13.1492 65.089 12.9206 64.7135 12.7736C64.5439 12.7043 64.3622 12.6514 64.167 12.6147C64.078 12.5978 63.9867 12.5845 63.8927 12.5747C63.7955 12.5644 63.6957 12.5578 63.5928 12.555C63.5503 12.5537 63.5078 12.553 63.4643 12.553C63.3319 12.553 63.203 12.5605 63.0776 12.5751L63.0101 12.5838L62.968 12.59C62.9246 12.5967 62.8812 12.6046 62.8382 12.6132C62.5446 12.6721 62.2716 12.7746 62.0187 12.9206C61.6105 13.1492 61.2842 13.4757 61.0389 13.9003C60.8102 14.3088 60.6956 14.7905 60.6956 15.3458C60.6956 15.9011 60.8102 16.3911 61.0389 16.8155C61.2842 17.2401 61.619 17.5749 62.0433 17.8199C62.4676 18.0649 62.9416 18.1875 63.4643 18.1875C63.9544 18.1875 64.3868 18.1057 64.7623 17.9425C65.1544 17.7628 65.4892 17.5178 65.7667 17.2075L68.1433 19.6082C67.5225 20.2614 66.8202 20.7595 66.0365 21.1026C65.2524 21.4291 64.3787 21.5926 63.4156 21.5926Z" fill="#B7BFC7"/>
<path fill-rule="evenodd" clip-rule="evenodd" d="M86.8427 21.5681C85.7488 21.5681 84.7686 21.2986 83.9035 20.7594C83.054 20.2205 82.3763 19.4858 81.8701 18.5548C81.38 17.624 81.1348 16.5623 81.1348 15.3702C81.1348 14.178 81.38 13.1164 81.8701 12.1856C82.3763 11.2546 83.054 10.5199 83.9035 9.98073C84.7686 9.4418 85.7488 9.17236 86.8427 9.17236C87.6429 9.17236 88.3617 9.32749 88.9986 9.63784C89.427 9.84131 89.8025 10.0974 90.1252 10.406V9.41732H93.7998V21.323H90.1252V20.3584C89.9045 20.5671 89.6566 20.752 89.3818 20.9131C89.3316 20.9426 89.2802 20.9714 89.2278 20.9994C89.1611 21.035 89.0926 21.0693 89.0228 21.1025C88.3698 21.4129 87.6429 21.5681 86.8427 21.5681ZM87.6027 18.1874C88.4029 18.1874 89.0474 17.9261 89.5375 17.4035C90.0276 16.8646 90.2724 16.1866 90.2724 15.3702C90.2724 15.0924 90.2438 14.831 90.1865 14.5861C90.1292 14.3411 90.0437 14.1125 89.9296 13.9003C89.717 13.4756 89.4068 13.1491 88.9986 12.9206C88.778 12.7827 88.5367 12.6837 88.2749 12.6233C88.0713 12.5763 87.8555 12.553 87.6268 12.553C87.3659 12.553 87.1188 12.5835 86.8865 12.6448C86.7447 12.6821 86.6077 12.7308 86.4766 12.791C86.3924 12.8294 86.3105 12.8727 86.2304 12.9206C85.8383 13.1491 85.5201 13.4756 85.2748 13.9003C85.0466 14.3249 84.9324 14.8149 84.9324 15.3702C84.9324 15.9091 85.0466 16.391 85.2748 16.8154C85.5035 17.24 85.8222 17.5748 86.2304 17.8198C86.6386 18.0648 87.096 18.1874 87.6027 18.1874Z" fill="#B7BFC7"/>
<path d="M99.2072 9.41732H95.4592V21.323H99.2072V14.7823C99.2072 14.0146 99.3871 13.4431 99.7461 13.0674C100.122 12.6756 100.62 12.4795 101.241 12.4795C101.551 12.4795 101.829 12.5285 102.074 12.6266C102.318 12.7245 102.523 12.8633 102.686 13.0429L104.915 10.2257C104.589 9.86642 104.205 9.60526 103.764 9.4418C103.34 9.26215 102.841 9.17236 102.27 9.17236C100.963 9.17236 99.9426 9.55634 99.2072 10.3238V9.41732Z" fill="#B7BFC7"/>
<path fill-rule="evenodd" clip-rule="evenodd" d="M109.645 26.6632C108.339 26.6632 107.187 26.4345 106.192 25.9775C105.211 25.5367 104.436 24.9078 103.864 24.091L106.166 21.7883C106.591 22.2947 107.065 22.6785 107.588 22.9399C108.126 23.2008 108.771 23.3315 109.523 23.3315C110.454 23.3315 111.18 23.1032 111.703 22.6458C112.242 22.1885 112.512 21.5433 112.512 20.7105V19.9585C112.257 20.1626 111.971 20.3396 111.654 20.49C111.001 20.8003 110.274 20.9555 109.474 20.9555C108.379 20.9555 107.408 20.6943 106.559 20.1715C105.71 19.649 105.04 18.9386 104.55 18.0403C104.06 17.1421 103.815 16.146 103.815 15.0518C103.815 13.9411 104.06 12.9451 104.55 12.063C105.04 11.1648 105.71 10.4626 106.559 9.95625C107.408 9.4337 108.379 9.17236 109.474 9.17236C110.29 9.17236 111.017 9.32749 111.654 9.63784C111.713 9.66407 111.77 9.69137 111.827 9.71979C112.104 9.8601 112.357 10.026 112.585 10.2174V9.41732H116.26V20.6126C116.26 21.8375 115.974 22.8991 115.402 23.797C114.831 24.6952 114.047 25.3975 113.051 25.9037C112.054 26.4103 110.919 26.6632 109.645 26.6632ZM110.184 17.624C110.707 17.624 111.156 17.5095 111.532 17.2809C111.628 17.2247 111.718 17.164 111.803 17.0988C112.062 16.8993 112.266 16.6579 112.413 16.3746C112.477 16.2579 112.531 16.1371 112.574 16.0118C112.632 15.8494 112.674 15.6796 112.7 15.5026C112.722 15.3573 112.732 15.207 112.732 15.0518C112.732 14.5618 112.626 14.1208 112.413 13.7289C112.218 13.3369 111.923 13.0266 111.532 12.7979C111.156 12.5694 110.707 12.455 110.184 12.455C110.03 12.455 109.881 12.4658 109.738 12.487L109.662 12.4992L109.596 12.5114C109.454 12.5401 109.317 12.5796 109.186 12.6301C109.112 12.6583 109.041 12.69 108.971 12.725C108.926 12.7479 108.881 12.7722 108.837 12.7979C108.445 13.0266 108.143 13.3369 107.931 13.7289C107.82 13.9331 107.738 14.1505 107.685 14.3813C107.636 14.5935 107.612 14.8171 107.612 15.0518C107.612 15.509 107.718 15.9417 107.931 16.3501C108.143 16.742 108.437 17.0523 108.813 17.2809C109.023 17.4037 109.253 17.4937 109.501 17.5506C109.715 17.5995 109.943 17.624 110.184 17.624Z" fill="#B7BFC7"/>
<path fill-rule="evenodd" clip-rule="evenodd" d="M120.35 20.8087C121.362 21.3312 122.514 21.5926 123.804 21.5926C124.8 21.5926 125.715 21.421 126.548 21.0781C127.381 20.735 128.091 20.2206 128.679 19.5348L126.621 17.477C126.262 17.8852 125.846 18.1956 125.372 18.408C124.899 18.6038 124.367 18.7019 123.78 18.7019C123.143 18.7019 122.587 18.5713 122.114 18.3099C121.787 18.1119 121.511 17.8597 121.285 17.5533C121.248 17.5046 121.214 17.4543 121.18 17.4027C121.129 17.3247 121.081 17.2432 121.036 17.1586C120.954 16.9885 120.885 16.8076 120.831 16.6155L129.365 16.5952C129.397 16.442 129.424 16.2986 129.444 16.1653C129.465 16.0285 129.479 15.9024 129.488 15.7868C129.499 15.7005 129.508 15.6161 129.516 15.5339C129.529 15.3827 129.536 15.2383 129.536 15.1008C129.536 13.9412 129.275 12.9123 128.753 12.0141C128.246 11.1159 127.544 10.4137 126.646 9.90734C125.747 9.40123 124.711 9.14795 123.535 9.14795C122.326 9.14795 121.24 9.41739 120.276 9.95631C119.313 10.4952 118.545 11.2385 117.974 12.1857C117.419 13.1164 117.141 14.1781 117.141 15.3703C117.141 16.5624 117.426 17.6322 117.998 18.5793C118.57 19.5265 119.354 20.2697 120.35 20.8087ZM120.832 14.0426C120.881 13.8708 120.941 13.7089 121.011 13.5574C121.152 13.2777 121.32 13.0353 121.519 12.8304C121.588 12.7585 121.661 12.6912 121.738 12.6284C121.826 12.5565 121.918 12.4905 122.016 12.4306C122.457 12.1529 122.971 12.0141 123.559 12.0141C124.115 12.0141 124.58 12.1367 124.956 12.3817C125.105 12.4691 125.241 12.5731 125.362 12.694C125.557 12.8892 125.716 13.128 125.837 13.4106C125.919 13.595 125.985 13.8007 126.036 14.0278L120.832 14.0426Z" fill="#B7BFC7"/>
</svg>
