<svg width="129" height="34" viewBox="0 0 129 34" fill="none" xmlns="http://www.w3.org/2000/svg">
<path d="M68.3568 16.5002C67.5502 17.2844 67.1471 18.4271 67.1471 19.9284V29.3054H61.7695V10.8874H66.038V16.9653C66.2422 15.2305 66.7578 13.8318 67.584 12.7695C68.7041 11.3579 70.3174 10.6521 72.4235 10.6521H73.1295V15.2902H71.7852C70.3064 15.2902 69.1635 15.6936 68.3568 16.5002Z" fill="#B7BFC7"/>
<path fill-rule="evenodd" clip-rule="evenodd" d="M84.6575 27.0536C84.8883 26.662 85.0787 26.2298 85.2289 25.7571V29.3052H89.4974V18.0125C89.4974 16.3096 89.1611 14.9204 88.4889 13.8449C87.8168 12.7469 86.8308 11.9291 85.5314 11.3913C84.2544 10.8536 82.6744 10.5847 80.7926 10.5847C80.1424 10.5847 79.4478 10.5959 78.7084 10.6183C77.969 10.6407 77.2521 10.6744 76.5575 10.7191C75.863 10.7639 75.2581 10.8088 74.7424 10.8536V15.3909C75.437 15.3461 76.2102 15.3013 77.0617 15.2564C77.9132 15.2116 78.7423 15.178 79.549 15.1556C80.3556 15.1332 81.0053 15.122 81.4981 15.122C82.4841 15.122 83.2011 15.3573 83.649 15.8278C84.0974 16.2984 84.3211 17.0042 84.3211 17.9453V18.0125H80.9939C79.3581 18.0125 77.9132 18.2253 76.6582 18.651C75.4036 19.0544 74.429 19.6929 73.7345 20.5668C73.0399 21.4183 72.6926 22.5161 72.6926 23.8604C72.6926 25.0931 72.9726 26.1573 73.5327 27.0536C74.0927 27.9276 74.866 28.5997 75.8515 29.07C76.8599 29.5404 78.0253 29.776 79.3472 29.776C80.6242 29.776 81.6999 29.5404 82.5738 29.07C83.4701 28.5997 84.1647 27.9276 84.6575 27.0536ZM83.7835 24.6337C84.0974 24.118 84.2768 23.4012 84.3211 22.4826V21.0037H80.9605C80.0193 21.0037 79.2909 21.239 78.7757 21.7095C78.2829 22.1577 78.0363 22.7738 78.0363 23.5581C78.0363 24.2974 78.2829 24.9022 78.7757 25.3731C79.2909 25.821 80.0193 26.0452 80.9605 26.0452C81.5654 26.0452 82.103 25.9445 82.5738 25.7428C83.0666 25.5186 83.4701 25.1489 83.7835 24.6337Z" fill="#B7BFC7"/>
<path d="M100.647 29.9441C99.0565 29.9441 97.6674 29.6865 96.4796 29.1709C95.3147 28.6333 94.3396 27.9163 93.5554 27.0199C92.7712 26.1236 92.1887 25.1157 91.8081 23.9951C91.4269 22.8524 91.2366 21.6761 91.2366 20.4662V19.8276C91.2366 18.5728 91.4384 17.3741 91.8414 16.2313C92.245 15.0662 92.8384 14.0355 93.6227 13.1392C94.4069 12.2429 95.3819 11.5371 96.5469 11.0218C97.7342 10.5065 99.0899 10.2488 100.614 10.2488C102.272 10.2488 103.739 10.5737 105.016 11.2235C106.293 11.8508 107.313 12.7359 108.075 13.8786C108.837 15.0214 109.263 16.3321 109.352 17.811H104.075C103.986 16.9819 103.65 16.2873 103.067 15.7272C102.507 15.1446 101.689 14.8533 100.614 14.8533C99.7172 14.8533 98.9668 15.0774 98.3619 15.5255C97.779 15.9736 97.3421 16.5898 97.0511 17.3741C96.7596 18.1583 96.6141 19.0882 96.6141 20.1637C96.6141 21.1495 96.7486 22.0458 97.0172 22.8524C97.2862 23.6367 97.7122 24.2527 98.2947 24.7011C98.8996 25.1266 99.6838 25.3394 100.647 25.3394C101.364 25.3394 101.969 25.2163 102.462 24.9697C102.978 24.7011 103.381 24.3424 103.672 23.8945C103.986 23.4238 104.176 22.8861 104.244 22.2811H109.487C109.419 23.8047 108.993 25.149 108.209 26.3144C107.425 27.4569 106.383 28.3532 105.084 29.003C103.784 29.6302 102.306 29.9441 100.647 29.9441Z" fill="#B7BFC7"/>
<path fill-rule="evenodd" clip-rule="evenodd" d="M115.514 29.1375C116.724 29.6751 118.113 29.9441 119.681 29.9441C121.227 29.9441 122.594 29.6751 123.782 29.1375C124.969 28.5999 125.955 27.849 126.739 26.8854C127.524 25.9223 128.05 24.8242 128.319 23.5919H123.378C123.155 24.1521 122.729 24.6224 122.101 25.0036C121.474 25.3842 120.667 25.575 119.681 25.575C118.606 25.575 117.732 25.3508 117.06 24.9024C116.387 24.4545 115.895 23.8271 115.581 23.0205C115.406 22.5582 115.28 22.054 115.202 21.508H128.655V19.6931C128.655 18.0127 128.297 16.4666 127.579 15.055C126.862 13.621 125.821 12.467 124.454 11.5932C123.11 10.6969 121.452 10.2488 119.479 10.2488C117.978 10.2488 116.634 10.5177 115.447 11.0554C114.281 11.5708 113.307 12.2766 112.523 13.1728C111.738 14.0691 111.133 15.0886 110.707 16.2313C110.304 17.3516 110.103 18.528 110.103 19.7603V20.4325C110.103 21.6201 110.304 22.7852 110.707 23.9279C111.133 25.0484 111.738 26.0678 112.523 26.9866C113.329 27.8829 114.326 28.5999 115.514 29.1375ZM115.243 18.4496C115.327 17.9677 115.451 17.5308 115.615 17.1388C115.951 16.3098 116.444 15.6824 117.093 15.2566C117.743 14.8309 118.539 14.6181 119.479 14.6181C120.398 14.6181 121.16 14.8309 121.765 15.2566C122.393 15.6599 122.863 16.2537 123.177 17.0379C123.347 17.4625 123.47 17.933 123.549 18.4496H115.243Z" fill="#B7BFC7"/>
<path d="M48.9656 29.3053V9.57647H42.0754V4.77026H61.4008V9.57647H54.4772V29.3053H48.9656Z" fill="#B7BFC7"/>
<path fill-rule="evenodd" clip-rule="evenodd" d="M16.9623 3.08408C9.29757 3.08408 3.08404 9.29757 3.08404 16.9623C3.08404 24.6271 9.29757 30.8408 16.9623 30.8408C24.6272 30.8408 30.8405 24.6271 30.8405 16.9623C30.8405 9.29757 24.6272 3.08408 16.9623 3.08408ZM0 16.9623C0 7.59429 7.59429 0 16.9623 0C26.3302 0 33.9244 7.59429 33.9244 16.9623C33.9244 26.3305 26.3302 33.9248 16.9623 33.9248C7.59429 33.9248 0 26.3305 0 16.9623Z" fill="#B7BFC7"/>
<path fill-rule="evenodd" clip-rule="evenodd" d="M25.4241 11.2117C25.8763 9.78772 24.5258 8.45033 23.1063 8.9161L13.4371 12.0888C12.8774 12.2725 12.4401 12.714 12.2619 13.2755L9.2658 22.7131C8.81377 24.1372 10.1641 25.4743 11.5836 25.0087L21.2529 21.836C21.8125 21.6523 22.2498 21.2108 22.4281 20.6493L25.4241 11.2117ZM17.3432 19.1652C18.5598 19.1652 19.5461 18.1789 19.5461 16.9623C19.5461 15.7457 18.5598 14.7595 17.3432 14.7595C16.1266 14.7595 15.1403 15.7457 15.1403 16.9623C15.1403 18.1789 16.1266 19.1652 17.3432 19.1652Z" fill="#B7BFC7"/>
</svg>
