<svg width="134" height="31" viewBox="0 0 134 31" fill="none" xmlns="http://www.w3.org/2000/svg">
<path d="M58.0299 4.51385C58.4928 4.99993 59.1989 5.243 60.1478 5.243C61.0967 5.243 61.7913 4.99993 62.231 4.51385C62.6711 4.0046 62.8908 3.3796 62.8908 2.63887C62.8908 1.85181 62.6711 1.21528 62.231 0.729149C61.7913 0.243063 61.0967 0 60.1478 0C59.1989 0 58.4928 0.243063 58.0299 0.729149C57.5898 1.21528 57.3701 1.85181 57.3701 2.63887C57.3701 3.3796 57.5898 4.0046 58.0299 4.51385Z" fill="#B7BFC7"/>
<path d="M35.9878 7.5L41.8907 26.3541H49.6334L54.7375 7.5H50.0852L46.2444 22.3958H45.4245L40.9533 7.5H35.9878Z" fill="#B7BFC7"/>
<path d="M73.8694 26.9442C71.277 26.9442 69.2397 26.4003 67.7584 25.3119C66.3003 24.2009 65.5363 22.6732 65.4668 20.7291H69.8069C69.8764 21.3768 70.2354 21.9671 70.8832 22.4995C71.5314 23.0319 72.5502 23.2983 73.9389 23.2983C75.0963 23.2983 76.0105 23.0898 76.6818 22.6732C77.3763 22.2567 77.7234 21.6896 77.7234 20.9719C77.7234 20.3469 77.4574 19.8493 76.925 19.4789C76.4158 19.1085 75.536 18.8655 74.2859 18.7497L72.6193 18.5761C70.513 18.3446 68.8927 17.7428 67.7584 16.7706C66.6242 15.7984 66.0571 14.5021 66.0571 12.8817C66.0571 11.5855 66.381 10.4975 67.0292 9.61791C67.6774 8.73827 68.5688 8.07858 69.703 7.63878C70.86 7.17582 72.1796 6.94434 73.6613 6.94434C75.9757 6.94434 77.8508 7.45359 79.2862 8.47209C80.7212 9.49059 81.4736 10.9836 81.5431 12.9512H77.2026C77.1563 12.3031 76.8324 11.7475 76.2305 11.2845C75.6286 10.8216 74.7608 10.5901 73.6266 10.5901C72.6077 10.5901 71.821 10.7869 71.2654 11.1804C70.7099 11.5739 70.4319 12.0831 70.4319 12.7081C70.4319 13.31 70.652 13.773 71.0917 14.097C71.5546 14.4211 72.2954 14.641 73.3138 14.7567L74.9805 14.9303C77.2026 15.1618 78.9387 15.7752 80.1888 16.7706C81.462 17.7659 82.0986 19.1085 82.0986 20.7981C82.0986 22.0482 81.7512 23.1361 81.057 24.0623C80.3857 24.9649 79.4363 25.671 78.2099 26.1802C76.983 26.6894 75.536 26.9442 73.8694 26.9442Z" fill="#B7BFC7"/>
<path d="M84.905 4.51385C85.3683 4.99993 86.074 5.243 87.0233 5.243C87.9722 5.243 88.6667 4.99993 89.1065 4.51385C89.5462 4.0046 89.7662 3.3796 89.7662 2.63887C89.7662 1.85181 89.5462 1.21528 89.1065 0.729149C88.6667 0.243063 87.9722 0 87.0233 0C86.074 0 85.3683 0.243063 84.905 0.729149C84.4653 1.21528 84.2456 1.85181 84.2456 2.63887C84.2456 3.3796 84.4653 4.0046 84.905 4.51385Z" fill="#B7BFC7"/>
<path fill-rule="evenodd" clip-rule="evenodd" d="M102.967 27.0135C101.301 27.0135 99.8309 26.7475 98.5576 26.2151C97.2844 25.6827 96.2081 24.965 95.3282 24.0624C94.4488 23.1363 93.7774 22.0947 93.3146 20.9373C92.8749 19.78 92.6548 18.5763 92.6548 17.3263V16.5971C92.6548 15.3009 92.8864 14.074 93.3493 12.9166C93.8354 11.7361 94.5183 10.6944 95.3977 9.79168C96.3007 8.86575 97.3887 8.14818 98.6619 7.63893C99.9347 7.10652 101.37 6.84033 102.967 6.84033C104.564 6.84033 106 7.10652 107.273 7.63893C108.546 8.14818 109.622 8.86575 110.502 9.79168C111.405 10.6944 112.087 11.7361 112.55 12.9166C113.013 14.074 113.245 15.3009 113.245 16.5971V17.3263C113.245 18.5763 113.013 19.78 112.55 20.9373C112.111 22.0947 111.451 23.1363 110.571 24.0624C109.692 24.965 108.615 25.6827 107.342 26.2151C106.069 26.7475 104.611 27.0135 102.967 27.0135ZM102.967 22.8819C104.148 22.8819 105.143 22.6271 105.953 22.1179C106.763 21.5855 107.377 20.8794 107.794 19.9999C108.21 19.0971 108.418 18.0786 108.418 16.9444C108.418 15.7869 108.199 14.7684 107.759 13.8888C107.342 12.9861 106.717 12.2801 105.884 11.7708C105.074 11.2384 104.101 10.9722 102.967 10.9722C101.833 10.9722 100.849 11.2384 100.016 11.7708C99.2058 12.2801 98.5808 12.9861 98.1407 13.8888C97.701 14.7684 97.4813 15.7869 97.4813 16.9444C97.4813 18.0786 97.6894 19.0971 98.1064 19.9999C98.5461 20.8794 99.1711 21.5855 99.981 22.1179C100.791 22.6271 101.787 22.8819 102.967 22.8819Z" fill="#B7BFC7"/>
<path d="M119.971 10.7985C119.805 11.2133 119.666 11.6625 119.555 12.1461V7.49995H115.735V26.354H120.561V15.2776C120.561 14.0508 120.92 13.0786 121.638 12.361C122.379 11.6203 123.339 11.2499 124.52 11.2499C125.677 11.2499 126.58 11.6087 127.228 12.3263C127.899 13.0439 128.235 13.9813 128.235 15.1388V26.354H133.061V15.5554C133.061 12.6851 132.483 10.5323 131.325 9.09716C130.168 7.63886 128.466 6.90967 126.221 6.90967H126.013C124.508 6.90967 123.246 7.23377 122.228 7.88188C121.233 8.53004 120.48 9.50225 119.971 10.7985Z" fill="#B7BFC7"/>
<path d="M58.377 11.1111V26.3541H63.2035V7.5H55.7383V11.1111H58.377Z" fill="#B7BFC7"/>
<path d="M85.2529 11.1111V26.3541H90.079V7.5H82.6138V11.1111H85.2529Z" fill="#B7BFC7"/>
<path fill-rule="evenodd" clip-rule="evenodd" d="M15.1143 30.2287C23.4616 30.2287 30.2285 23.4617 30.2285 15.1143C30.2285 6.7669 23.4616 0 15.1143 0C6.7669 0 0 6.7669 0 15.1143C0 23.4617 6.7669 30.2287 15.1143 30.2287ZM26.2376 13.5459C24.8283 15.194 22.8431 16.2203 20.6437 16.2203C16.3681 16.2203 12.9021 12.3417 12.9021 7.55719C12.9021 6.35349 13.1215 5.20713 13.518 4.16542C8.16042 4.97913 4.05494 9.60507 4.05494 15.1899C4.05494 16.8193 4.40443 18.3672 5.03257 19.7625C5.66976 19.1698 6.56524 18.8009 7.55706 18.8009C9.49119 18.8009 11.0592 20.2038 11.0592 21.9345C11.0592 23.0964 10.3522 24.1107 9.30207 24.6518C11.0143 25.7223 13.0381 26.3411 15.2064 26.3411C21.3652 26.3411 26.358 21.3487 26.358 15.1899C26.358 14.6314 26.3166 14.0824 26.2376 13.5459Z" fill="#B7BFC7"/>
<mask id="mask0_1_3009" style="mask-type:alpha" maskUnits="userSpaceOnUse" x="0" y="0" width="31" height="31">
<path fill-rule="evenodd" clip-rule="evenodd" d="M15.1143 30.2287C23.4616 30.2287 30.2285 23.4617 30.2285 15.1143C30.2285 6.7669 23.4616 0 15.1143 0C6.7669 0 0 6.7669 0 15.1143C0 23.4617 6.7669 30.2287 15.1143 30.2287ZM26.2376 13.5459C24.8283 15.194 22.8431 16.2203 20.6437 16.2203C16.3681 16.2203 12.9021 12.3417 12.9021 7.55719C12.9021 6.35349 13.1215 5.20713 13.518 4.16542C8.16042 4.97913 4.05494 9.60507 4.05494 15.1899C4.05494 16.8193 4.40443 18.3672 5.03257 19.7625C5.66976 19.1698 6.56524 18.8009 7.55706 18.8009C9.49119 18.8009 11.0592 20.2038 11.0592 21.9345C11.0592 23.0964 10.3522 24.1107 9.30207 24.6518C11.0143 25.7223 13.0381 26.3411 15.2064 26.3411C21.3652 26.3411 26.358 21.3487 26.358 15.1899C26.358 14.6314 26.3166 14.0824 26.2376 13.5459Z" fill="#B7BFC7"/>
</mask>
<g mask="url(#mask0_1_3009)">
<path d="M26.2376 13.5459L27.3313 13.3842L26.9763 10.9802L25.397 12.8271L26.2376 13.5459ZM13.5179 4.16537L14.5515 4.55876L15.2257 2.78741L13.3519 3.072L13.5179 4.16537ZM5.03252 19.7625L4.02407 20.2165L4.65696 21.6225L5.78583 20.5722L5.03252 19.7625ZM9.30202 24.6517L8.7955 23.6685L7.06758 24.5586L8.71566 25.5895L9.30202 24.6517ZM29.1228 15.1143C29.1228 22.8511 22.851 29.1225 15.1143 29.1225V31.3343C24.0725 31.3343 31.3346 24.0726 31.3346 15.1143H29.1228ZM15.1143 1.10586C22.851 1.10586 29.1228 7.37765 29.1228 15.1143H31.3346C31.3346 6.15609 24.0725 -1.10596 15.1143 -1.10596V1.10586ZM1.1059 15.1143C1.1059 7.37765 7.37765 1.10586 15.1143 1.10586V-1.10596C6.15609 -1.10596 -1.10596 6.15609 -1.10596 15.1143H1.1059ZM15.1143 29.1225C7.37765 29.1225 1.1059 22.8511 1.1059 15.1143H-1.10596C-1.10596 24.0726 6.15609 31.3343 15.1143 31.3343V29.1225ZM20.6437 17.3262C23.2021 17.3262 25.483 16.1298 27.0781 14.2646L25.397 12.8271C24.1734 14.258 22.484 15.1143 20.6437 15.1143V17.3262ZM11.7962 7.55714C11.7962 12.8322 15.6436 17.3262 20.6437 17.3262V15.1143C17.0925 15.1143 14.008 11.8511 14.008 7.55714H11.7962ZM12.4843 3.77199C12.0402 4.93907 11.7962 6.21876 11.7962 7.55714H14.008C14.008 6.48813 14.2028 5.47505 14.5515 4.55876L12.4843 3.77199ZM5.16083 15.1898C5.16083 10.1599 8.8587 5.99162 13.684 5.25879L13.3519 3.072C7.462 3.96657 2.94898 9.05014 2.94898 15.1898H5.16083ZM6.04097 19.3085C5.47583 18.0531 5.16083 16.6597 5.16083 15.1898H2.94898C2.94898 16.9789 3.33297 18.6812 4.02407 20.2165L6.04097 19.3085ZM7.55701 17.6949C6.29148 17.6949 5.12526 18.1657 4.27921 18.9528L5.78583 20.5722C6.21417 20.1737 6.83895 19.9068 7.55701 19.9068V17.6949ZM12.165 21.9344C12.165 19.4805 9.98306 17.6949 7.55701 17.6949V19.9068C8.99926 19.9068 9.95319 20.9272 9.95319 21.9344H12.165ZM9.8085 25.635C11.1698 24.9334 12.165 23.5708 12.165 21.9344H9.95319C9.95319 22.6219 9.53449 23.2879 8.7955 23.6685L9.8085 25.635ZM15.2063 25.2354C13.2513 25.2354 11.4299 24.6778 9.88837 23.714L8.71566 25.5895C10.5986 26.7667 12.8247 27.4472 15.2063 27.4472V25.2354ZM25.2518 15.1898C25.2518 20.7377 20.7541 25.2354 15.2063 25.2354V27.4472C21.9757 27.4472 27.4636 21.9592 27.4636 15.1898H25.2518ZM25.1434 13.7075C25.2146 14.1906 25.2518 14.6856 25.2518 15.1898H27.4636C27.4636 14.577 27.4185 13.974 27.3313 13.3842L25.1434 13.7075Z" fill="#B7BFC7"/>
</g>
</svg>
