<svg width="20" height="17" viewBox="0 0 20 17" fill="none" xmlns="http://www.w3.org/2000/svg">
<path d="M1 11.0002V12.8C1 13.9201 1 14.4798 1.21799 14.9076C1.40973 15.2839 1.71547 15.5905 2.0918 15.7822C2.5192 16 3.07899 16 4.19691 16H19.0002M1 11.0002V1M1 11.0002L4.8534 7.7891L4.85658 7.7865C5.55366 7.2056 5.90288 6.9146 6.28154 6.7964C6.72887 6.6567 7.21071 6.6788 7.64355 6.8584C8.0105 7.0106 8.3323 7.3324 8.9758 7.9759L8.9822 7.9823C9.6357 8.6358 9.9633 8.9635 10.3362 9.1153C10.7774 9.2951 11.2685 9.3106 11.7207 9.1606C12.1041 9.0334 12.4542 8.7275 13.1543 8.115L19 3" stroke="#D0D5DB" stroke-width="2" stroke-linecap="round" stroke-linejoin="round"/>
</svg>
