<svg width="17" height="18" viewBox="0 0 17 18" fill="none" xmlns="http://www.w3.org/2000/svg">
<path fill-rule="evenodd" clip-rule="evenodd" d="M5.16089 4V4.625H3.50494C2.70532 4.625 2.03474 5.2287 1.95103 6.02393L0.898402 16.0239C0.801285 16.9465 1.52465 17.75 2.45231 17.75H15.3696C16.2972 17.75 17.0206 16.9465 16.9235 16.0239L15.8709 6.02393C15.7871 5.2287 15.1166 4.625 14.317 4.625H12.6609V4C12.6609 1.92893 10.982 0.25 8.91088 0.25C6.83982 0.25 5.16089 1.92893 5.16089 4ZM8.91088 1.5C7.53014 1.5 6.41089 2.61929 6.41089 4V4.625H11.4109V4C11.4109 2.61929 10.2916 1.5 8.91088 1.5ZM6.41089 8.375C6.41089 9.75575 7.53014 10.875 8.91088 10.875C10.2916 10.875 11.4109 9.75575 11.4109 8.375V7.75C11.4109 7.40483 11.6907 7.125 12.0359 7.125C12.3811 7.125 12.6609 7.40483 12.6609 7.75V8.375C12.6609 10.4461 10.982 12.125 8.91088 12.125C6.83982 12.125 5.16089 10.4461 5.16089 8.375V7.75C5.16089 7.40483 5.44071 7.125 5.78589 7.125C6.13106 7.125 6.41089 7.40483 6.41089 7.75V8.375Z" fill="white"/>
</svg>
